<svg xmlns="http://www.w3.org/2000/svg" viewBox="0 0 1440 2000" width="1080" height="1500">
	<style>
		tspan { white-space:pre }
		.shp0 { fill: #5da7a1 } 
	</style>
	<path id="Layer" class="shp0" d="M0 96L48 122.7C96 149 192 203 288 202.7C384 203 480 149 576 154.7C672 160 768 224 864 261.3C960 299 1056 309 1152 298.7C1248 288 1344 256 1392 240L1440 224L1440 320L1392 320C1344 320 1248 320 1152 320C1056 320 960 320 864 320C768 320 672 320 576 320C480 320 384 320 288 320C192 320 96 320 48 320L0 320L0 96Z" />
	<path id="Shape 1" class="shp0" d="M-39 303L1455 303L1455 2032L-39 2032L-39 303Z" />
	<path id="Shape 2" class="shp0" d="M1515 351L1615 351L1615 451L1515 451L1515 351Z" />
</svg>